<?xml version="1.0" standalone="no"?>
<!DOCTYPE svg PUBLIC "-//W3C//DTD SVG 20010904//EN"
 "http://www.w3.org/TR/2001/REC-SVG-20010904/DTD/svg10.dtd">
<svg version="1.0" xmlns="http://www.w3.org/2000/svg"
 width="1024.000000pt" height="1024.000000pt" viewBox="0 0 1024.000000 1024.000000"
 preserveAspectRatio="xMidYMid meet">

<g transform="translate(0.000000,1024.000000) scale(0.100000,-0.100000)"
fill="#000000" stroke="none">
<path d="M3743 7689 c-59 -29 -159 -139 -126 -139 3 0 15 7 25 17 17 15 18 15
18 -1 0 -9 -7 -31 -16 -48 -12 -22 -14 -45 -10 -77 l6 -46 -33 37 c-24 28 -43
38 -77 44 -104 16 -116 11 -356 -169 -149 -111 -183 -141 -198 -176 -16 -34
-29 -46 -78 -68 -37 -16 -70 -40 -90 -65 -39 -49 -26 -69 22 -33 18 14 35 23
38 21 2 -3 -12 -33 -32 -69 -20 -35 -36 -74 -36 -86 0 -27 29 -40 155 -71 50
-12 97 -26 106 -31 13 -6 18 -3 22 14 3 12 19 69 36 127 35 124 37 120 -106
196 -18 10 -33 24 -33 32 0 15 43 -7 150 -77 36 -24 72 -38 105 -42 178 -22
295 -32 301 -27 3 4 -8 36 -25 71 -18 37 -31 78 -30 98 1 32 2 31 19 -20 9
-30 31 -72 49 -92 17 -21 31 -42 31 -46 0 -5 18 -26 39 -47 38 -37 43 -39 161
-56 66 -10 123 -20 126 -23 3 -3 -10 -10 -29 -16 -19 -7 -42 -20 -52 -31 -29
-32 5 -35 63 -6 28 14 70 29 93 32 43 7 89 41 89 67 0 18 113 124 118 109 15
-46 79 -81 97 -52 9 14 -64 151 -97 182 -27 25 -78 39 -78 21 0 -4 12 -19 27
-35 26 -27 26 -28 7 -49 -10 -12 -46 -42 -79 -67 -54 -39 -64 -43 -100 -38
-39 5 -211 59 -221 68 -8 9 -54 236 -54 268 0 34 11 37 54 15 40 -21 72 -19
91 7 8 13 23 23 33 23 10 0 25 17 37 40 12 22 29 52 38 65 18 25 26 22 41 -15
2 -6 8 -6 15 1 17 15 -3 136 -32 194 -40 83 -137 112 -224 69z"/>
<path d="M5085 7266 c-21 -14 -517 -318 -825 -506 -102 -62 -282 -173 -400
-246 -186 -114 -215 -130 -218 -113 -6 35 -43 43 -106 25 -56 -16 -179 -78
-203 -102 -15 -15 -17 -68 -3 -93 13 -25 10 -28 -255 -190 l-230 -141 -932 0
-933 0 0 -102 c0 -57 -3 -113 -6 -125 l-6 -23 1003 0 1004 0 285 176 c157 97
481 297 720 444 239 147 539 332 665 410 507 315 474 296 503 279 52 -31 602
-370 1037 -639 242 -150 585 -362 762 -471 l322 -199 996 0 995 0 0 125 0 125
-930 0 -930 0 -187 113 c-104 63 -334 203 -513 312 -179 109 -404 246 -500
305 -96 58 -323 196 -505 305 -181 109 -383 232 -448 272 -65 40 -124 73 -130
72 -7 0 -21 -6 -32 -13z"/>
<path d="M3176 6941 c-18 -20 -50 -114 -61 -181 -9 -56 -23 -64 -99 -56 l-63
7 -7 -32 c-3 -17 -6 -66 -7 -108 -2 -123 0 -121 -117 -162 -56 -20 -111 -44
-120 -53 -10 -9 -29 -16 -41 -16 -12 0 -33 -11 -47 -26 -20 -19 -24 -31 -19
-52 13 -58 51 -145 75 -173 23 -28 32 -31 103 -36 68 -5 77 -4 77 11 0 25 -49
86 -77 97 -16 6 -34 31 -54 74 -42 89 -31 105 12 19 20 -38 42 -70 51 -72 17
-3 196 74 266 115 23 14 50 39 59 56 9 17 33 101 53 185 21 84 40 155 42 158
7 7 147 -15 168 -26 17 -9 16 -14 -6 -120 -13 -61 -28 -127 -33 -147 -6 -20
-8 -39 -5 -42 7 -7 175 81 196 103 41 44 91 263 75 329 -17 63 -139 125 -300
151 -53 9 -98 16 -100 16 -2 0 -12 -9 -21 -19z"/>
<path d="M4850 6375 l0 -125 120 0 120 0 0 125 0 125 -120 0 -120 0 0 -125z"/>
<path d="M5140 6375 l0 -125 125 0 125 0 0 125 0 125 -125 0 -125 0 0 -125z"/>
<path d="M4850 6080 l0 -130 120 0 120 0 0 130 0 130 -120 0 -120 0 0 -130z"/>
<path d="M5140 6080 l0 -130 125 0 125 0 0 130 0 130 -125 0 -125 0 0 -130z"/>
<path d="M8115 5550 c-286 -46 -460 -235 -443 -481 11 -143 93 -204 358 -264
136 -30 170 -47 170 -81 0 -76 -62 -99 -238 -91 -105 5 -261 30 -332 52 -12 4
-19 -14 -34 -83 -10 -48 -25 -115 -34 -150 -8 -34 -13 -64 -11 -66 2 -2 47
-11 101 -20 126 -22 387 -23 483 -3 276 59 434 226 435 460 0 160 -65 213
-342 277 -181 42 -217 70 -168 132 47 61 243 62 460 3 30 -8 55 -13 57 -12 4
5 63 290 60 293 -2 2 -37 11 -78 19 -89 19 -359 28 -444 15z"/>
<path d="M3436 5415 c-280 -532 -494 -938 -518 -978 -15 -26 -28 -52 -28 -57
0 -6 71 -10 178 -10 l178 0 49 100 49 100 178 0 c135 0 178 -3 179 -12 0 -7 6
-51 13 -98 l11 -85 178 -3 c97 -1 177 -1 177 1 0 2 -38 237 -84 522 -46 286
-87 546 -91 577 l-7 57 -200 3 -200 3 -62 -120z m192 -257 c3 -35 39 -275 48
-320 l6 -28 -121 0 c-67 0 -121 2 -121 3 0 2 33 73 73 158 41 85 79 169 87
187 7 17 15 32 19 32 4 0 8 -15 9 -32z"/>
<path d="M6425 5529 c-2 -3 -8 -32 -14 -65 -5 -32 -33 -187 -61 -344 -44 -243
-107 -601 -127 -718 l-6 -34 329 5 c373 5 414 11 554 79 206 99 335 306 358
574 15 169 -13 292 -86 375 -35 40 -126 92 -192 110 -46 13 -749 29 -755 18z
m494 -270 c108 -23 161 -92 161 -209 -1 -165 -68 -307 -173 -361 -36 -19 -251
-48 -264 -36 -3 3 19 143 48 311 l53 306 63 0 c34 0 85 -5 112 -11z"/>
<path d="M1811 5343 c-18 -104 -62 -352 -97 -553 -35 -201 -66 -377 -68 -393
l-6 -27 182 2 182 3 35 198 35 197 31 0 c17 0 38 -6 47 -12 9 -7 50 -96 91
-198 l76 -185 205 -3 c114 -1 206 -1 206 1 0 2 -10 23 -21 47 -12 25 -46 101
-76 169 -30 69 -63 143 -74 165 -10 22 -18 40 -16 41 1 1 28 14 60 29 156 75
258 256 245 436 -10 136 -88 219 -240 255 -49 11 -139 15 -414 15 l-350 0 -33
-187z m622 -96 c56 -36 58 -113 5 -173 -36 -41 -72 -51 -210 -60 -127 -8 -118
-22 -88 141 11 60 20 111 20 113 0 2 55 2 123 1 97 -3 129 -8 150 -22z"/>
<path d="M4475 5518 c-2 -7 -29 -157 -59 -333 -83 -483 -136 -778 -142 -797
-5 -17 8 -18 184 -18 l189 0 7 48 c3 26 16 102 27 168 l22 121 191 6 c256 8
352 35 463 133 154 134 199 432 86 564 -47 54 -107 88 -189 105 -93 20 -772
22 -779 3z m605 -273 c60 -35 67 -132 14 -195 -36 -43 -105 -60 -237 -60
l-109 0 5 28 c3 15 13 72 22 127 10 55 19 106 21 114 3 10 30 12 127 10 101
-3 128 -8 157 -24z"/>
<path d="M5676 4967 c-55 -309 -101 -570 -104 -580 -4 -16 8 -17 183 -15 l188
3 78 440 c42 242 88 502 101 578 l25 137 -186 0 -186 0 -99 -563z"/>
<path d="M1779 4116 c-118 -42 -175 -166 -138 -300 15 -54 83 -119 142 -135
52 -15 134 -9 176 14 58 30 103 99 115 172 17 115 -56 230 -162 252 -66 14
-88 13 -133 -3z m139 -102 c28 -18 52 -71 52 -114 0 -71 -58 -140 -118 -140
-36 0 -80 27 -97 60 -23 45 -20 131 7 165 41 53 102 64 156 29z"/>
<path d="M2268 4115 c-93 -30 -159 -145 -144 -248 4 -23 19 -64 34 -92 21 -40
38 -56 82 -78 49 -25 62 -28 119 -23 83 7 141 41 178 104 24 40 28 58 28 122
-1 61 -5 84 -25 120 -49 87 -167 128 -272 95z m133 -98 c42 -28 59 -60 59
-115 0 -92 -59 -152 -135 -138 -112 21 -128 215 -22 261 44 20 59 18 98 -8z"/>
<path d="M3795 4125 c-5 -2 -22 -6 -37 -9 -38 -9 -95 -61 -120 -110 -47 -90
-19 -234 57 -292 67 -51 199 -56 267 -11 57 39 78 81 78 158 l0 69 -105 0
-105 0 0 -45 0 -45 56 0 c47 0 55 -3 50 -16 -3 -9 -6 -20 -6 -25 0 -13 -56
-39 -85 -39 -97 0 -153 104 -111 205 16 38 68 75 104 75 30 0 78 -25 91 -47 8
-15 13 -15 36 -5 14 7 35 12 45 12 58 0 -29 100 -103 118 -44 11 -91 14 -112
7z"/>
<path d="M4300 4114 c-67 -29 -88 -90 -54 -156 16 -30 16 -31 -14 -54 -39 -31
-56 -74 -49 -125 12 -94 121 -136 226 -89 40 18 46 19 61 5 11 -10 37 -15 75
-15 l59 0 -49 50 -49 50 21 22 c25 28 43 62 43 82 0 12 -10 16 -34 16 -27 0
-39 -7 -57 -31 l-21 -30 -28 32 -27 33 39 36 c31 31 38 44 38 76 0 48 -22 82
-66 100 -42 18 -70 17 -114 -2z m88 -90 c3 -21 -21 -54 -38 -54 -16 0 -31 40
-25 61 9 28 59 23 63 -7z m-29 -201 c17 -21 31 -40 31 -44 0 -15 -51 -28 -74
-19 -38 14 -51 46 -31 76 21 33 38 30 74 -13z"/>
<path d="M6227 4117 c-95 -31 -150 -111 -149 -217 0 -78 13 -114 55 -158 49
-52 83 -66 162 -66 82 -1 139 24 178 76 80 108 54 275 -53 340 -53 33 -137 43
-193 25z m147 -117 c37 -37 47 -118 21 -173 -34 -72 -129 -86 -179 -26 -60 71
-40 190 37 225 43 19 86 10 121 -26z"/>
<path d="M8755 4126 c-5 -2 -23 -7 -38 -10 -16 -4 -48 -25 -72 -47 -57 -52
-80 -118 -71 -201 7 -66 17 -90 55 -131 37 -40 72 -56 138 -63 71 -8 132 8
174 43 42 36 59 79 59 153 l0 60 -105 0 -105 0 0 -45 0 -45 54 0 55 0 -11 -30
c-12 -37 -35 -50 -85 -50 -83 0 -130 63 -121 161 6 59 34 94 89 111 44 13 90
-1 114 -35 12 -18 18 -19 40 -9 14 7 35 12 45 12 25 0 25 5 0 44 -26 43 -89
77 -153 82 -28 2 -56 2 -62 0z"/>
<path d="M1210 3901 l0 -221 55 0 55 0 0 80 0 80 28 0 c24 0 34 -10 73 -77
l45 -78 68 -3 68 -3 -61 88 -60 88 30 23 c57 45 74 114 44 172 -27 52 -65 64
-212 68 l-133 4 0 -221z m229 113 c17 -13 21 -22 16 -43 -9 -37 -32 -51 -87
-51 l-48 0 0 55 0 55 48 0 c28 0 57 -7 71 -16z"/>
<path d="M2630 3900 l0 -220 53 0 52 0 -3 80 -4 80 86 0 86 0 0 45 0 44 -82 3
-83 3 -3 48 -3 47 101 0 101 0 -3 43 -3 42 -147 3 -148 3 0 -221z"/>
<path d="M2980 3901 l0 -221 54 0 55 0 -2 218 -2 217 -52 3 -53 3 0 -220z"/>
<path d="M3170 3900 l0 -220 50 0 49 0 3 137 3 136 85 -134 85 -134 53 -3 52
-3 0 219 0 219 -50 2 -49 1 -3 -127 -3 -127 -82 127 -82 127 -56 0 -55 0 0
-220z"/>
<path d="M4720 3901 l0 -221 55 0 55 0 0 80 0 80 28 0 c23 0 34 -11 75 -80
l48 -80 60 0 c32 0 59 2 59 4 0 3 -25 42 -55 87 l-55 82 41 36 c50 44 61 97
34 155 -28 58 -60 69 -212 74 l-133 4 0 -221z m235 105 c11 -17 13 -30 6 -48
-10 -28 -36 -38 -93 -38 l-38 0 0 55 0 55 55 0 c46 0 57 -4 70 -24z"/>
<path d="M5150 3900 l0 -220 160 0 160 0 0 45 0 45 -105 0 -105 0 0 45 0 45
85 0 85 0 0 40 0 40 -84 0 -84 0 -4 41 c-2 22 -2 42 1 45 2 2 51 4 108 4 l103
0 0 44 0 43 -160 2 -160 2 0 -221z"/>
<path d="M5540 3900 l0 -220 50 0 50 0 0 143 c0 83 4 136 9 127 5 -8 28 -72
51 -142 l42 -128 34 0 33 0 42 133 c23 72 46 136 51 141 4 6 8 -54 8 -132 l0
-142 50 0 50 0 -2 218 -3 217 -67 3 c-79 3 -75 8 -128 -156 -18 -56 -34 -101
-36 -100 -1 2 -21 60 -44 131 l-41 127 -75 0 -74 0 0 -220z"/>
<path d="M6590 3900 l0 -222 133 4 c128 3 136 4 183 33 65 40 94 96 94 180 -1
104 -30 159 -105 198 -33 17 -63 22 -172 25 l-133 4 0 -222z m235 116 c41 -17
65 -60 65 -116 0 -85 -49 -130 -140 -130 l-50 0 0 130 0 130 45 0 c25 0 61 -6
80 -14z"/>
<path d="M7070 3901 l0 -221 165 0 165 0 0 45 0 45 -110 0 -110 0 0 45 0 45
88 0 88 0 -4 40 -4 40 -84 0 -84 0 0 45 0 45 111 0 110 0 -3 43 -3 42 -162 3
-163 3 0 -220z"/>
<path d="M7480 3899 l0 -219 160 0 160 0 0 45 0 45 -105 0 -105 0 0 173 0 172
-55 2 -55 1 0 -219z"/>
<path d="M7880 3900 l0 -220 55 0 55 0 0 219 0 219 -55 1 -55 0 0 -219z"/>
<path d="M8080 3898 l0 -218 55 0 54 0 3 141 3 141 93 -141 93 -141 60 0 59 0
-2 218 -3 217 -49 -1 -49 -1 0 -131 c0 -73 -3 -129 -6 -127 -3 3 -44 63 -91
133 l-87 127 -66 0 -67 1 0 -218z"/>
<path d="M1630 3310 l0 -80 3470 0 3470 0 0 80 0 80 -3470 0 -3470 0 0 -80z"/>
</g>
</svg>
